<svg width="13" height="13" viewBox="0 0 13 13" fill="none" xmlns="http://www.w3.org/2000/svg">
<path d="M11.7115 6.24248L12.4015 5.04998C12.4844 4.90651 12.507 4.73597 12.4642 4.57588C12.4214 4.41578 12.3168 4.27922 12.1734 4.19623L10.9796 3.50623V2.13123C10.9796 1.96547 10.9138 1.8065 10.7966 1.68929C10.6794 1.57208 10.5204 1.50623 10.3546 1.50623H8.98024L8.29087 0.313108C8.20761 0.169931 8.07132 0.0652987 7.91149 0.0218578C7.83222 0.000367744 7.74947 -0.00517357 7.66804 0.00555505C7.58661 0.0162837 7.50812 0.0430689 7.43712 0.0843579L6.24337 0.774358L5.04962 0.0837328C4.90607 0.00085636 4.73548 -0.0216028 4.57537 0.0212959C4.41526 0.0641945 4.27875 0.168937 4.19587 0.312483L3.50587 1.50623H2.13149C1.96573 1.50623 1.80676 1.57208 1.68955 1.68929C1.57234 1.8065 1.50649 1.96547 1.50649 2.13123V3.50561L0.312744 4.19561C0.241514 4.23658 0.179082 4.29122 0.129034 4.3564C0.0789869 4.42157 0.0423104 4.49599 0.0211122 4.57538C-8.59937e-05 4.65477 -0.00538814 4.73757 0.00551041 4.81902C0.016409 4.90047 0.0432933 4.97896 0.084619 5.04998L0.774619 6.24248L0.084619 7.43498C0.00211203 7.57859 -0.0202735 7.749 0.0223431 7.90904C0.0649596 8.06909 0.169122 8.2058 0.312119 8.28936L1.50587 8.97936V10.3537C1.50587 10.5195 1.57172 10.6785 1.68893 10.7957C1.80614 10.9129 1.96511 10.9787 2.13087 10.9787H3.50587L4.19587 12.1725C4.2512 12.2671 4.3302 12.3456 4.42511 12.4004C4.52001 12.4552 4.62754 12.4844 4.73712 12.485C4.84587 12.485 4.95399 12.4562 5.05024 12.4006L6.24274 11.7106L7.43649 12.4006C7.58001 12.4834 7.75048 12.5058 7.91053 12.4631C8.07058 12.4203 8.20714 12.3158 8.29024 12.1725L8.97962 10.9787H10.354C10.5198 10.9787 10.6787 10.9129 10.7959 10.7957C10.9131 10.6785 10.979 10.5195 10.979 10.3537V8.97936L12.1727 8.28936C12.2439 8.24827 12.3062 8.19356 12.3561 8.12838C12.4061 8.06319 12.4427 7.98879 12.4639 7.90945C12.4851 7.8301 12.4904 7.74736 12.4796 7.66595C12.4688 7.58453 12.442 7.50605 12.4009 7.43498L11.7115 6.24248ZM4.68024 3.11123C4.92897 3.11132 5.16747 3.2102 5.34329 3.38613C5.5191 3.56207 5.61783 3.80063 5.61774 4.04936C5.61766 4.29808 5.51878 4.53658 5.34284 4.7124C5.16691 4.88822 4.92834 4.98694 4.67962 4.98686C4.4309 4.98678 4.19239 4.88789 4.01658 4.71196C3.84076 4.53603 3.74204 4.29746 3.74212 4.04873C3.7422 3.80001 3.84109 3.56151 4.01702 3.38569C4.19295 3.20988 4.43152 3.11115 4.68024 3.11123ZM4.86774 9.11123L3.86774 8.36186L7.61774 3.36186L8.61774 4.11123L4.86774 9.11123ZM7.80524 9.36123C7.68209 9.36119 7.56015 9.33689 7.44638 9.28973C7.33262 9.24256 7.22926 9.17345 7.1422 9.08633C7.05515 8.99922 6.9861 8.89581 6.93901 8.78202C6.89192 8.66822 6.8677 8.54626 6.86774 8.42311C6.86778 8.29995 6.89208 8.17801 6.93925 8.06425C6.98642 7.95048 7.05553 7.84712 7.14264 7.76007C7.22976 7.67301 7.33316 7.60397 7.44696 7.55687C7.56076 7.50978 7.68271 7.48557 7.80587 7.48561C8.05459 7.48569 8.2931 7.58457 8.46891 7.76051C8.64473 7.93644 8.74345 8.17501 8.74337 8.42373C8.74329 8.67246 8.6444 8.91096 8.46847 9.08677C8.29254 9.26259 8.05397 9.36132 7.80524 9.36123Z" fill="#9E0000"/>
</svg>
