<svg width="16" height="17" viewBox="0 0 16 17" fill="none" xmlns="http://www.w3.org/2000/svg">
<path d="M7.30664 5.17539C7.30664 5.04941 7.2566 4.92859 7.16752 4.83951C7.07844 4.75044 6.95762 4.70039 6.83164 4.70039C6.70566 4.70039 6.58484 4.75044 6.49576 4.83951C6.40668 4.92859 6.35664 5.04941 6.35664 5.17539V7.07539H4.45664C4.33066 7.07539 4.20984 7.12543 4.12076 7.21451C4.03169 7.30359 3.98164 7.42441 3.98164 7.55039C3.98164 7.67637 4.03169 7.79719 4.12076 7.88627C4.20984 7.97535 4.33066 8.02539 4.45664 8.02539H6.35664V9.92539C6.35664 10.0514 6.40668 10.1722 6.49576 10.2613C6.58484 10.3503 6.70566 10.4004 6.83164 10.4004C6.95762 10.4004 7.07844 10.3503 7.16752 10.2613C7.2566 10.1722 7.30664 10.0514 7.30664 9.92539V8.02539H9.20664C9.33262 8.02539 9.45344 7.97535 9.54252 7.88627C9.6316 7.79719 9.68164 7.67637 9.68164 7.55039C9.68164 7.42441 9.6316 7.30359 9.54252 7.21451C9.45344 7.12543 9.33262 7.07539 9.20664 7.07539H7.30664V5.17539ZM2.55664 0.900391C1.92675 0.900391 1.32266 1.15061 0.877262 1.59601C0.431863 2.04141 0.181641 2.6455 0.181641 3.27539V11.8254C0.181641 12.4553 0.431863 13.0594 0.877262 13.5048C1.32266 13.9502 1.92675 14.2004 2.55664 14.2004H11.1066C11.7365 14.2004 12.3406 13.9502 12.786 13.5048C13.2314 13.0594 13.4816 12.4553 13.4816 11.8254V3.27539C13.4816 2.6455 13.2314 2.04141 12.786 1.59601C12.3406 1.15061 11.7365 0.900391 11.1066 0.900391H2.55664ZM1.13164 3.27539C1.13164 2.89746 1.28177 2.535 1.54901 2.26776C1.81625 2.00052 2.17871 1.85039 2.55664 1.85039H11.1066C11.4846 1.85039 11.847 2.00052 12.1143 2.26776C12.3815 2.535 12.5316 2.89746 12.5316 3.27539V11.8254C12.5316 12.2033 12.3815 12.5658 12.1143 12.833C11.847 13.1003 11.4846 13.2504 11.1066 13.2504H2.55664C2.17871 13.2504 1.81625 13.1003 1.54901 12.833C1.28177 12.5658 1.13164 12.2033 1.13164 11.8254V3.27539ZM5.40664 16.1004C4.53616 16.1016 3.70013 15.7604 3.07914 15.1504H12.0566C12.6865 15.1504 13.2906 14.9002 13.736 14.4548C14.1814 14.0094 14.4316 13.4053 14.4316 12.7754V3.79789C15.0197 4.39829 15.3816 5.21909 15.3816 6.12539V12.7754C15.3816 13.6572 15.0313 14.503 14.4078 15.1265C13.7842 15.7501 12.9385 16.1004 12.0566 16.1004H5.40664Z" fill="#888888"/>
</svg>
