<svg width="30" height="30" viewBox="0 0 30 30" fill="none" xmlns="http://www.w3.org/2000/svg">
<path d="M20.625 9.375V12.1875C20.625 12.4361 20.5263 12.6746 20.3504 12.8504C20.1746 13.0263 19.9361 13.125 19.6875 13.125H18.75V9.375H11.25V13.125H10.3125C10.0639 13.125 9.82543 13.0263 9.64963 12.8504C9.47374 12.6746 9.375 12.4361 9.375 12.1875V9.375H5.625V26.25H24.375V9.375H20.625ZM9.375 7.5C9.375 6.00816 9.96763 4.57742 11.0225 3.52252C12.0774 2.46763 13.5081 1.875 15 1.875C16.4919 1.875 17.9226 2.46763 18.9775 3.52252C20.0324 4.57742 20.625 6.00816 20.625 7.5H25.3125C25.5611 7.5 25.7996 7.59877 25.9754 7.77459C26.1513 7.9504 26.25 8.18886 26.25 8.4375V27.1875C26.25 27.4361 26.1513 27.6746 25.9754 27.8504C25.7996 28.0263 25.5611 28.125 25.3125 28.125H4.6875C4.43886 28.125 4.2004 28.0263 4.02459 27.8504C3.84877 27.6746 3.75 27.4361 3.75 27.1875V8.4375C3.75 8.18886 3.84877 7.9504 4.02459 7.77459C4.2004 7.59877 4.43886 7.5 4.6875 7.5H9.375ZM11.25 7.5H18.75C18.75 6.50544 18.3549 5.55161 17.6517 4.84835C16.9484 4.14509 15.9945 3.75 15 3.75C14.0055 3.75 13.0516 4.14509 12.3483 4.84835C11.6451 5.55161 11.25 6.50544 11.25 7.5Z" fill="black"/>
<path d="M5.625 20.625H24.375V22.5H5.625V20.625Z" fill="black"/>
</svg>
