<svg width="18" height="18" viewBox="0 0 18 18" fill="none" xmlns="http://www.w3.org/2000/svg">
<path d="M16.2911 8.99909L17.2111 7.40909C17.3217 7.21779 17.3517 6.99041 17.2947 6.77695C17.2377 6.56348 17.0982 6.38141 16.9069 6.27076L15.3153 5.35076V3.51742C15.3153 3.29641 15.2275 3.08445 15.0712 2.92817C14.9149 2.77189 14.703 2.68409 14.4819 2.68409H12.6494L11.7303 1.09326C11.6193 0.902355 11.4375 0.762846 11.2244 0.704925C11.1187 0.676272 11.0084 0.668883 10.8998 0.683188C10.7913 0.697493 10.6866 0.733206 10.5919 0.788258L9.00027 1.70826L7.40861 0.787425C7.21721 0.676923 6.98975 0.646978 6.77627 0.704176C6.5628 0.761374 6.38078 0.901031 6.27027 1.09243L5.35027 2.68409H3.51777C3.29676 2.68409 3.0848 2.77189 2.92852 2.92817C2.77224 3.08445 2.68444 3.29641 2.68444 3.51742V5.34992L1.09277 6.26992C0.9978 6.32455 0.914557 6.39741 0.847827 6.48431C0.781097 6.57121 0.732195 6.67044 0.703931 6.77629C0.675667 6.88215 0.668597 6.99254 0.683128 7.10114C0.69766 7.20974 0.733506 7.31439 0.788607 7.40909L1.70861 8.99909L0.788607 10.5891C0.678597 10.7806 0.64875 11.0078 0.705572 11.2212C0.762394 11.4346 0.901277 11.6168 1.09194 11.7283L2.68361 12.6483V14.4808C2.68361 14.7018 2.7714 14.9137 2.92768 15.07C3.08396 15.2263 3.29593 15.3141 3.51694 15.3141H5.35027L6.27027 16.9058C6.34405 17.0319 6.44939 17.1366 6.57592 17.2097C6.70246 17.2827 6.84583 17.3216 6.99194 17.3224C7.13694 17.3224 7.28111 17.2841 7.40944 17.2099L8.99944 16.2899L10.5911 17.2099C10.7825 17.3203 11.0098 17.3502 11.2232 17.2932C11.4366 17.2362 11.6186 17.0968 11.7294 16.9058L12.6486 15.3141H14.4811C14.7021 15.3141 14.9141 15.2263 15.0704 15.07C15.2266 14.9137 15.3144 14.7018 15.3144 14.4808V12.6483L16.9061 11.7283C17.0009 11.6735 17.084 11.6005 17.1506 11.5136C17.2172 11.4267 17.266 11.3275 17.2943 11.2217C17.3225 11.1159 17.3296 11.0056 17.3152 10.897C17.3008 10.7885 17.2652 10.6838 17.2103 10.5891L16.2911 8.99909ZM6.91611 4.82409C7.24774 4.8242 7.56574 4.95605 7.80016 5.19062C8.03458 5.4252 8.16622 5.74329 8.16611 6.07492C8.166 6.40656 8.03415 6.72456 7.79957 6.95898C7.565 7.1934 7.2469 7.32504 6.91527 7.32492C6.58364 7.32481 6.26564 7.19297 6.03122 6.95839C5.7968 6.72381 5.66516 6.40572 5.66527 6.07409C5.66538 5.74246 5.79723 5.42446 6.03181 5.19004C6.26638 4.95562 6.58447 4.82398 6.91611 4.82409ZM7.16611 12.8241L5.83277 11.8249L10.8328 5.15826L12.1661 6.15742L7.16611 12.8241ZM11.0828 13.1574C10.9186 13.1574 10.756 13.125 10.6043 13.0621C10.4526 12.9992 10.3148 12.907 10.1987 12.7909C10.0826 12.6747 9.99058 12.5369 9.9278 12.3851C9.86501 12.2334 9.83272 12.0708 9.83277 11.9066C9.83283 11.7424 9.86522 11.5798 9.92811 11.4281C9.991 11.2764 10.0832 11.1386 10.1993 11.0225C10.3155 10.9065 10.4533 10.8144 10.6051 10.7516C10.7568 10.6888 10.9194 10.6565 11.0836 10.6566C11.4152 10.6567 11.7332 10.7885 11.9677 11.0231C12.2021 11.2577 12.3337 11.5758 12.3336 11.9074C12.3335 12.2391 12.2016 12.5571 11.9671 12.7915C11.7325 13.0259 11.4144 13.1575 11.0828 13.1574Z" fill="#27BA50"/>
</svg>
