<svg width="15" height="15" viewBox="0 0 15 15" fill="none" xmlns="http://www.w3.org/2000/svg">
<path d="M4.96094 1.41406H4.8125C4.89414 1.41406 4.96094 1.34727 4.96094 1.26562V1.41406H10.6016V1.26562C10.6016 1.34727 10.6684 1.41406 10.75 1.41406H10.6016V2.75H11.9375V1.26562C11.9375 0.610645 11.405 0.078125 10.75 0.078125H4.8125C4.15752 0.078125 3.625 0.610645 3.625 1.26562V2.75H4.96094V1.41406ZM14.3125 2.75H1.25C0.921582 2.75 0.65625 3.01533 0.65625 3.34375V3.9375C0.65625 4.01914 0.723047 4.08594 0.804688 4.08594H1.92539L2.38369 13.79C2.41338 14.4228 2.93662 14.9219 3.56934 14.9219H11.9932C12.6277 14.9219 13.1491 14.4246 13.1788 13.79L13.6371 4.08594H14.7578C14.8395 4.08594 14.9062 4.01914 14.9062 3.9375V3.34375C14.9062 3.01533 14.6409 2.75 14.3125 2.75ZM11.8503 13.5859H3.71221L3.26318 4.08594H12.2993L11.8503 13.5859Z" fill="#EB2A2A"/>
</svg>
