<svg width="19" height="22" viewBox="0 0 19 22" fill="none" xmlns="http://www.w3.org/2000/svg">
<path d="M15.0441 20.5714C13.8775 21.7024 12.6037 21.5238 11.3775 20.9881C10.0799 20.4405 8.88938 20.4167 7.52033 20.9881C5.80605 21.7262 4.90128 21.5119 3.87748 20.5714C-1.93205 14.5833 -1.07491 5.46429 5.52033 5.13095C7.12748 5.21429 8.24652 6.0119 9.187 6.08333C10.5918 5.79762 11.937 4.97619 13.437 5.08333C15.2346 5.22619 16.5918 5.94048 17.4846 7.22619C13.7703 9.45238 14.6513 14.3452 18.0561 15.7143C17.3775 17.5 16.4965 19.2738 15.0322 20.5833L15.0441 20.5714ZM9.06795 5.05952C8.88938 2.40476 11.0441 0.214286 13.5203 0C13.8656 3.07143 10.7346 5.35714 9.06795 5.05952Z" fill="black"/>
</svg>
