<svg width="30" height="12" viewBox="0 0 30 12" fill="none" xmlns="http://www.w3.org/2000/svg">
<path d="M27.7763 10.7104L27.4962 9.30414H24.3537L23.8538 10.7004L21.335 10.7054C22.9538 6.81414 24.1562 3.93289 24.94 2.05914C25.145 1.56914 25.5088 1.31914 26.045 1.32289C26.455 1.32664 27.1237 1.32664 28.0525 1.32414L30 10.7066L27.7763 10.7104ZM25.0612 7.37789H27.0863L26.33 3.85289L25.0612 7.37789ZM8.825 1.32164L11.3575 1.32414L7.4425 10.7116L4.87875 10.7091C4.23406 8.22954 3.59739 5.74786 2.96875 3.26414C2.84375 2.76914 2.59625 2.42289 2.12 2.25914C1.41667 2.0234 0.709925 1.79796 0 1.58289L0 1.32414H4.04625C4.74625 1.32414 5.155 1.66289 5.28625 2.35789C5.41875 3.05414 5.75125 4.82789 6.28625 7.67539L8.825 1.32164ZM14.8375 1.32414L12.8363 10.7104L10.425 10.7066L12.425 1.32164L14.8375 1.32414ZM19.725 1.15039C20.4462 1.15039 21.355 1.37539 21.8775 1.58289L21.455 3.52789C20.9825 3.33789 20.205 3.08164 19.5512 3.09039C18.6012 3.10664 18.0138 3.50539 18.0138 3.88789C18.0138 4.51039 19.0337 4.82414 20.0837 5.50414C21.2812 6.27914 21.44 6.97539 21.425 7.73289C21.4087 9.30164 20.0838 10.8504 17.2888 10.8504C16.0138 10.8316 15.5538 10.7254 14.5138 10.3554L14.9538 8.32539C16.0125 8.76789 16.4612 8.90914 17.3662 8.90914C18.195 8.90914 18.9063 8.57414 18.9125 7.99039C18.9175 7.57539 18.6625 7.36914 17.7325 6.85664C16.8025 6.34289 15.4975 5.63289 15.515 4.20414C15.5362 2.37664 17.2675 1.15039 19.725 1.15039Z" fill="black"/>
</svg>
